<?xml version="1.0" encoding="UTF-8" standalone="no"?>
<!DOCTYPE svg PUBLIC "-//W3C//DTD SVG 1.1//EN" "http://www.w3.org/Graphics/SVG/1.1/DTD/svg11.dtd">
<svg width="100%" height="100%" viewBox="0 0 1000 1000" version="1.1" xmlns="http://www.w3.org/2000/svg" xmlns:xlink="http://www.w3.org/1999/xlink" xml:space="preserve" xmlns:serif="http://www.serif.com/" style="fill-rule:evenodd;clip-rule:evenodd;stroke-linejoin:round;stroke-miterlimit:2;">
    <g transform="matrix(2,0,0,2,500,500)">
        <g transform="matrix(1,0,0,1,-250,-250)">
            <g id="Layer-1" serif:id="Layer 1">
                <path id="path1261" d="M67,85L197.689,265L302.692,265L300.717,262.282L433,85.301L247.557,214.66L67,85Z" style="fill:url(#_Linear1);fill-rule:nonzero;"/>
                <g id="path1052" transform="matrix(2.09466,0,0,2.09466,-274.165,-274.165)">
                    <path d="M250.147,365.771L233.53,266.948L134.229,250.147L233.205,236.097L249.853,134.229L264.561,235.917L365.771,249.853L264.561,266.948L250.147,365.771Z" style="fill:url(#_Linear2);fill-rule:nonzero;"/>
                </g>
            </g>
        </g>
    </g>
    <defs>
        <linearGradient id="_Linear1" x1="0" y1="0" x2="1" y2="0" gradientUnits="userSpaceOnUse" gradientTransform="matrix(2.25303,-257.845,257.845,2.25303,246.939,264.845)"><stop offset="0" style="stop-color:rgb(190,160,219);stop-opacity:1"/><stop offset="1" style="stop-color:rgb(241,234,247);stop-opacity:1"/></linearGradient>
        <linearGradient id="_Linear2" x1="0" y1="0" x2="1" y2="0" gradientUnits="userSpaceOnUse" gradientTransform="matrix(0.2941,231.541,-231.541,0.2941,249.853,134.229)"><stop offset="0" style="stop-color:rgb(190,160,219);stop-opacity:1"/><stop offset="1" style="stop-color:rgb(85,46,122);stop-opacity:1"/></linearGradient>
    </defs>
</svg>
