<svg xmlns="http://www.w3.org/2000/svg" width="500" height="366" fill="none" viewBox="0 0 500 366"><rect width="305" height="210" x="15" y="40" fill="#fff" fill-opacity=".1" rx="24"/><rect width="300" height="205" x="17.5" y="42.5" stroke="#fff" stroke-dasharray="20 30" stroke-linecap="round" stroke-linejoin="round" stroke-opacity=".5" stroke-width="5" rx="21.5"/><rect width="210" height="138" x="269" y="178" fill="#888"/><rect width="213" height="143" x="266" y="176" stroke="#fff" stroke-width="12" rx="6"/><rect width="57" height="57" x="46" y="66" fill="#fff" rx="8"/><rect width="57" height="57" x="119" y="66" fill="#fff" rx="8"/><rect width="57" height="57" x="192" y="66" fill="#fff" rx="8"/><rect width="57" height="57" x="46" y="139" fill="#fff" rx="8"/><rect width="38" height="36" x="289" y="204" fill="#fff" rx="8"/><rect width="38" height="36" x="339" y="204" fill="#fff" rx="8"/><rect width="38" height="36" x="389" y="204" fill="#fff" rx="8"/><rect width="38" height="37" x="289" y="252" fill="#fff" rx="8"/><path stroke="#fff" stroke-linecap="round" stroke-linejoin="round" stroke-width="10" d="M345 65H382V155M382 155L364.5 137.222M382 155L400 137.222"/><rect width="130" height="12" x="305" y="335" fill="#fff" rx="6"/><rect width="40" height="12" x="350" y="325" fill="#fff"/></svg>